<?xml version="1.0" encoding="utf-8"?>
<!-- Generator: Adobe Illustrator 27.5.0, SVG Export Plug-In . SVG Version: 6.00 Build 0)  -->
<svg version="1.1" id="Capa_1" xmlns="http://www.w3.org/2000/svg" xmlns:xlink="http://www.w3.org/1999/xlink" x="0px" y="0px"
	 viewBox="0 0 2122 2122" style="enable-background:new 0 0 2122 2122;" xml:space="preserve">
<g>
	<path style="fill:#F59D1B;" d="M1820.468,1089.36L1820.468,1089.36c0.503-2.212,0.63-4.505,0.387-6.782
		c-0.006-0.067-0.021-0.133-0.028-0.2c-0.111-0.963-0.29-1.915-0.525-2.858c-0.057-0.233-0.112-0.464-0.176-0.695
		c-0.286-1.011-0.616-2.009-1.036-2.969c-77.66-177.064-127.167-220.739-304.812-429.634
		c-16.221-19.075-83.196-103.367-105.79-85.255c-68.994,55.309-185.587-19.272-131.696-92.196
		c27.082-36.645-15.751-67.388-115.722-131.125c-13.781-8.786-128.933-83.775-146.214-88.843
		c-78.945-23.089-168.137-1.19-233.098,22.578c-168.476,61.641-262.419,84.56-415.559,183.956
		c-14.306,9.285-23.359,25.281-26.088,40.795c-1.105,6.28-0.719,12.549,0.72,18.764c-2.105,7.661-2.9,15.477-1.35,23.343
		c1.916,9.734,7.273,18.55,9.023,28.314c6.116,34.123-31.58,60.061-39.879,93.719c-11.986,48.605,39.851,97.233,25.189,145.097
		c-8.575,27.993-38.96,54.031-26.178,80.37c3.667,7.557,10.539,13.264,13.818,20.998c6.68,15.756-5.673,35.248-13.065,52.607
		c-15.379,81.751-16.39,126.325,11.782,173.059c15.628,25.925,53.79,21.584,82.451,11.845c28.661-9.739,39.399,8.747,63.38,27.218
		c12.67,9.759,18.682,25.641,28.087,38.576c13.194,18.146,33.868,30.674,56.06,33.971c20.631,3.066,42.606-6.609,62.489-0.273
		c100.787,32.12,7.265,162.92,8.758,215.861c0.753,26.722,20.581,67.378,52.797,56.646c27.503-9.161,38.11-50.194,35.714-75.518
		c-3.56-37.618-38.024-82.892-13.232-111.408c17.876-20.56,50.513-23.479,75.21-11.975c24.697,11.504,42.258,34.579,54.032,59.149
		c5.367,11.2,10.033,23.278,19.294,31.554c20.984,18.753,53.378,9.788,80.98,4.303c56.536-11.236,116.881-2.216,167.659,25.06
		c39.645,21.296,76.052,54.076,120.98,56.668c28.317,1.634,55.807-9.262,84.052-11.859c34.86-3.207,69.499,6.284,103.221,15.683
		c54.082,15.074,115.305,36.327,135.697,88.636c31.124,79.84-23.679,161.943-14.604,247.154
		c2.82,26.478,25.797,56.382,50.635,46.784c8.644-3.341,14.972-10.846,20.012-18.622c35.665-55.021-10.575-126.576-12.209-192.125
		c-1.567-62.838,9.225-125.918,31.267-184.776c5.81-3.81,11.528-9.19,17.241-16.608c18.957-24.612,12.13-65.705,44.777-81.027
		c6.774-3.179,14.346-4.525,20.878-8.176c25.308-14.146,21.813-51.423,35.261-77.109c8.913-17.023,25.783-29.652,40.369-42.967
		c-0.082-0.224-0.213-0.412-0.289-0.64c0.558,1.672,1.296,3.217,2.123,4.695c12.527-9.608,26.008-18.31,30.948-34.273
		c2.669-8.624,3.267-17.582,3.804-26.545c-1.629-15.555-3.783-31.241,0.092-46.278c3.9-15.131,13.722-28.593,15.303-44.138
		C1824.185,1104.21,1822.847,1096.693,1820.468,1089.36z"/>
	<path style="fill:#FFDF0F;" d="M1820.468,1089.36C1820.468,1089.36,1820.468,1089.359,1820.468,1089.36
		c0.503-2.212,0.63-4.505,0.387-6.782c-0.006-0.067-0.021-0.133-0.028-0.199c-0.111-0.963-0.29-1.916-0.525-2.858
		c-0.057-0.233-0.112-0.464-0.176-0.695c-0.285-1.011-0.615-2.01-1.036-2.969c-77.66-177.064-127.167-220.739-304.812-429.634
		c-16.221-19.075-83.196-103.367-105.79-85.255c-68.994,55.309-185.587-19.271-131.696-92.196
		c27.082-36.645-15.751-67.388-115.722-131.124c-13.781-8.786-128.933-83.776-146.214-88.843
		c-78.945-23.089-168.137-1.19-233.098,22.578c-168.476,61.641-262.419,84.561-415.559,183.956
		c-14.306,9.285-23.359,25.281-26.088,40.795c-4.909,27.901,18.382,55.647,42.36,78.881
		c150.208,145.553,362.863,235.006,573.341,314.22c133.888,50.389,270.876,95.082,410.071,133.792
		c6.355,1.767,12.76,3.57,19.19,5.388c1.246,0.353,2.488,0.702,3.737,1.056c5.871,1.663,11.77,3.343,17.696,5.034
		c72.204,20.609,148.357,42.871,224.384,57.053c0.035,0.006,0.071,0.014,0.106,0.02c22.508,4.197,45.002,7.676,67.38,10.197
		c0.16,0.018,0.32,0.036,0.481,0.054c7.422,0.832,14.831,1.56,22.223,2.17c0.001,0,0.002,0,0.003,0
		c2.589,0.896,5.104,2.079,7.448,3.716c11.387,7.953,17.856,22.424,16.19,36.212c-0.995,8.238-4.638,16.507-2.583,24.547
		c2.684,10.498,13.851,16.291,19.797,25.349c0.189,0.288,0.299,0.607,0.476,0.901c8.499,12.044,7.79,26.409,6.968,40.971
		c-0.43,7.609-0.689,15.408,1.755,22.735c0.558,1.672,1.296,3.217,2.123,4.695c12.527-9.608,26.008-18.31,30.948-34.273
		c2.669-8.624,3.267-17.581,3.804-26.545c-1.629-15.555-3.783-31.241,0.092-46.278c3.9-15.131,13.722-28.593,15.303-44.138
		C1824.185,1104.21,1822.847,1096.693,1820.468,1089.36z"/>
	<path style="fill:#FBC21D;" d="M1820.468,1089.36c0,0,0-0.001,0-0.001c0.503-2.21,0.629-4.503,0.387-6.78
		c-0.007-0.068-0.021-0.136-0.028-0.205c-0.112-0.962-0.29-1.914-0.524-2.856c-0.057-0.233-0.111-0.462-0.176-0.693
		c-0.286-1.012-0.616-2.01-1.037-2.971c-0.014-0.03-0.026-0.058-0.039-0.089c-1.8-4.103-3.579-8.103-5.349-12.057
		c-0.87-1.946-1.737-3.872-2.6-5.786c-0.581-1.285-1.159-2.55-1.737-3.821c-31.454-69.221-59.211-117.597-94.474-166.517
		c-28.16,15.932-61.257,23.763-92.723,28.348c-42.414,6.18-85.659,6.506-128.381,3.94c-117.321-7.047-230.596-44.643-335.249-96.879
		c-87.435-43.642-173.11-92.707-249.277-154.296c-75.216-60.821-142.852-136.051-176.922-227.918
		c-7.847-21.158-13.733-42.566-8.496-65.119c4.672-20.117,16.398-37.598,29.965-52.834c20.855-23.421,46.629-42.512,68.691-64.877
		c-14.334,4.19-28.008,8.771-40.74,13.429c-168.476,61.641-262.419,84.561-415.559,183.956
		c-14.306,9.285-23.358,25.281-26.088,40.795c-4.909,27.901,18.381,55.647,42.359,78.881
		c150.208,145.553,362.863,235.006,573.341,314.22c133.888,50.389,270.876,95.082,410.071,133.792
		c111.928,31.127,235.765,71.116,355.181,80.971c0.006,0,0.012,0.001,0.018,0.002c2.589,0.896,5.104,2.079,7.448,3.716
		c11.387,7.953,17.856,22.424,16.19,36.212c-0.995,8.238-4.638,16.507-2.583,24.547c2.684,10.498,13.851,16.291,19.797,25.349
		c0.189,0.288,0.299,0.607,0.476,0.901c8.499,12.044,7.79,26.409,6.968,40.971c-0.43,7.609-0.689,15.408,1.755,22.735
		c0.558,1.672,1.296,3.217,2.123,4.695c12.527-9.608,26.008-18.31,30.948-34.273c2.669-8.624,3.267-17.581,3.804-26.545
		c-1.629-15.555-3.783-31.241,0.092-46.278c3.9-15.131,13.722-28.593,15.303-44.138
		C1824.185,1104.21,1822.847,1096.693,1820.468,1089.36z"/>
	<path style="fill:#F0821A;" d="M543.5,960.583c10.359,46.554,50.406,82.71,95.619,97.885c25.913,8.697,55.994,10.973,79.323-3.272
		c7.159-4.371,13.411-10.15,18.688-16.671c29.083-35.943,24.284-91.754-3.497-128.713c-24.257-32.27-85.125-70.895-128.012-63.715
		C557.615,854.136,534.139,918.514,543.5,960.583z"/>
	<path style="fill:#DA6A1C;" d="M621.864,913.2c-0.012,37.134,34.541,65.414,68.086,73.743c15.751,3.911,33.559,4.243,48.173-3.72
		c7.978-4.348,13.722-10.771,17.714-18.258c-2.569-19.818-10.239-39.234-22.204-55.151c-15.972-21.248-47.818-45.169-79.951-57.038
		C636.649,868.649,621.872,889.255,621.864,913.2z"/>
	<path style="fill:#F0821A;" d="M883.082,926.345c-11.035-0.578-20.955,8.768-23.447,19.533c-2.492,10.765,1.23,22.205,7.458,31.332
		c16.802,24.624,52.996,33.542,79.314,19.544c0.912-13.781,14.476-23.637,17.483-37.116c3.802-17.038-11.383-33.62-28.314-37.874
		c-16.93-4.255-34.68,0.399-51.511,5.031"/>
	<path style="fill:#F0821A;" d="M991.729,1254.613c19.838,9.225,44.753,7.916,62.303-5.145c6.733-5.01,12.467-11.933,14.119-20.161
		c1.108-5.517,0.324-11.225-0.654-16.767c-6.776-38.407-64.054-148.745-115.587-95.159
		C918.241,1152.392,955.234,1237.643,991.729,1254.613z"/>
	<path style="fill:#F0821A;" d="M1469.297,1331.724c2.74,3.666,4.553,7.627,5.049,11.789c0.739,6.186-2.731,12.499-6.772,16.465
		c-12.547,12.314-29.159,8.87-43.515,4.797c-7.915-2.245-16.077-4.636-22.354-10.976c-6.277-6.341-10.198-17.759-7.146-28.223
		c2.813-9.643,10.756-15.802,18.381-17.225C1428.182,1305.51,1457.435,1315.856,1469.297,1331.724z"/>
	<path style="fill:#F0821A;" d="M1273.484,1131.982c-1.044,3.432-2.704,6.413-5.102,8.658c-3.564,3.336-9.16,4.073-13.539,3.362
		c-13.597-2.211-19.128-14.299-23.216-25.254c-2.253-6.04-4.53-12.303-3.438-19.208c1.092-6.905,6.484-14.678,14.508-17.605
		c7.394-2.697,14.968-0.538,19.404,3.616C1270.964,1093.858,1278.001,1117.13,1273.484,1131.982z"/>
	<path style="fill:#F59D1B;" d="M601.09,614.621c24.699,5.281,51.54,4.431,73.87-7.372c6.609-3.494,12.985-8.185,16.217-14.926
		c4.798-10.008,1.583-22.006-3.273-31.986c-15.387-31.627-47.412-54.554-82.311-58.928c-30.643-3.841-92.787,11.193-99.25,49.245
		C499.655,590.031,571.67,608.331,601.09,614.621z"/>
	<path style="fill:#F59D1B;" d="M939.365,834.389c12.327,2.636,25.724,2.211,36.869-3.68c3.298-1.744,6.481-4.085,8.094-7.45
		c2.394-4.995,0.79-10.983-1.634-15.964c-7.68-15.785-23.664-27.228-41.082-29.411c-15.293-1.917-46.31,5.587-49.536,24.578
		C888.739,822.115,924.681,831.249,939.365,834.389z"/>
	<path style="fill:#F59D1B;" d="M923.405,501.704c14.296,10.927,31.881,18.44,49.585,24.977
		c18.675,6.896,38.08,12.944,58.092,14.752c20.011,1.808,40.864-0.982,56.351-10.46c30.999-18.971,31.509-57.868,18.928-89.466
		c-3.534-8.878-7.95-17.695-14.797-25.33c-12.001-13.384-30.68-22.125-49.916-26.787
		C964.772,370.759,834.018,433.379,923.405,501.704z"/>
	<path style="fill:#DA6A1C;" d="M1107.287,476.425c-36.983-15.17-78.674-19.43-118.274-15.659
		c-28.349,2.7-58.211,9.671-83.041,24.586c4.486,5.388,10.237,10.851,17.434,16.352c14.296,10.927,31.881,18.44,49.585,24.978
		c18.675,6.896,38.08,12.943,58.092,14.752c20.011,1.808,40.864-0.982,56.351-10.46c19.166-11.73,26.654-31.08,26.621-51.61
		C1111.816,478.338,1109.558,477.356,1107.287,476.425z"/>
	<path style="fill:#F59D1B;" d="M1059.922,645.98c-12.715-0.541-20.119,15.574-17.574,28.043
		c3.327,16.301,18.155,29.473,34.708,31.134c16.554,1.661,33.571-8.137,40.702-23.168c1.318-2.778,2.34-5.829,1.986-8.883
		c-0.456-3.923-3.079-7.212-5.692-10.173c-8.182-9.272-17.709-17.925-29.427-21.872c-11.718-3.947-26.021-2.212-34.377,6.902"/>
	<path style="fill:#F59D1B;" d="M1316.731,800.964c-13.503,13.493-21.666,34.122-15.157,52.067
		c5.623,15.5,20.527,25.567,35.344,32.802c31.291,15.278,66.36,22.743,101.161,21.533c16.993-0.591,35.366-3.959,46.76-16.581
		c12.186-13.499,12.938-33.648,11.177-51.749c-2.808-28.87-12.497-60.273-37.636-74.746
		C1418.372,741.26,1347.022,770.695,1316.731,800.964z"/>
	<path style="fill:#DA6A1C;" d="M1467.231,879.47c-43.221-41.407-111.664-70.634-167.849-37.365
		c0.208,3.696,0.901,7.364,2.193,10.925c5.623,15.501,20.527,25.568,35.344,32.802c31.291,15.278,66.36,22.743,101.161,21.533
		c15.262-0.53,31.594-3.364,43.025-13.067C1476.714,889.143,1472.121,884.156,1467.231,879.47z"/>
	<path style="fill:#F59D1B;" d="M1635.835,940.21c-8.625,1.984-14.249,9.728-15.014,17.642c-0.764,7.914,2.528,15.875,6.955,22.967
		c5.868,9.4,14.386,18.175,25.716,21.879c11.33,3.705,25.645,0.848,31.097-8.36c5.114-8.637,1.36-19.4-2.501-28.834
		c-3.502-8.556-7.284-17.443-14.753-23.787c-7.469-6.344-19.789-9.197-27.778-3.929"/>
	<path style="fill:#F59D1B;" d="M1324.305,653.312c-8.091-1.507-16.346-2.131-24.572-1.857c-5.529,0.185-11.595,1.039-15.279,5.166
		c-3.193,3.576-3.786,8.896-2.716,13.568c2.1,9.177,9.846,16.278,18.558,19.847c8.711,3.57,18.339,4.118,27.753,4.153
		c5.553,0.021,11.263-0.152,16.382-2.306c5.119-2.154,9.578-6.723,10.039-12.258c0.288-3.463-1.001-6.911-2.928-9.803
		c-5.972-8.963-17.104-12.668-27.413-15.784"/>
	<path style="fill:#F0821A;" d="M1500.029,1238.35c12.709,20.689,4.192,51.26,21.304,68.486
		c9.977,10.044,25.35,11.804,39.457,12.998c21.061,1.783,46.308,1.706,58.231-15.746c12.719-18.618,1.427-43.644-9.915-63.131
		c-8.927-15.338-17.854-30.676-26.781-46.013c-19.905-34.198-75.951-70.179-118.507-48.805
		C1402.298,1177.037,1485.046,1213.961,1500.029,1238.35z"/>
	<path style="fill:#DA6A1C;" d="M1516.288,1203.11c9.517,31.248,39.117,51.07,69.017,60.173c11.845,3.606,24.353,5.876,36.973,6.607
		c-2.882-10.041-8.009-20.061-13.172-28.933c-8.927-15.338-17.854-30.676-26.781-46.013c-11.604-19.937-35.495-40.458-61.833-49.889
		C1513.416,1163.601,1510.407,1183.801,1516.288,1203.11z"/>
	<path style="fill:#F0821A;" d="M1166.979,1342.101c-3.568,17.212,2.765,36.125,15.978,47.718
		c32.817,28.794,87.27,5.697,125.993,25.862c17.352,9.035,35.303,26.93,52.935,18.456c13.022-6.259,15.932-24.293,11.24-37.958
		c-4.691-13.665-14.74-24.713-22.081-37.157c-7.961-13.495-12.858-28.856-22.643-41.094c-14.885-18.615-39.384-27.444-63.19-28.628
		C1227.018,1287.4,1176.249,1297.383,1166.979,1342.101z"/>
	<path style="fill:#FDCE19;" d="M371.06,685.005c6.89,17.906,15.896,37.203,9.92,55.434c-4.153,12.669-15.051,22.465-18.247,35.408
		c-6.26,25.347,18.986,52.183,8.897,76.264c-3.731,8.904-12.034,16.134-12.564,25.773c-0.344,6.263,2.747,12.142,5.75,17.649
		c7.222,13.248,14.444,26.496,21.665,39.744c7.283-2.973,14.567-5.946,21.85-8.92c0.039-32.528,5.69-65.043,16.628-95.677
		c2.462-6.895,5.23-13.923,5.024-21.242c-0.26-9.224-5.209-17.687-6.534-26.819c-3.097-21.354,13.835-42.457,8.715-63.418
		c-1.896-7.764-6.134-17.518,0.143-22.484C493.23,648.652,331.677,582.648,371.06,685.005z"/>
	<path style="fill:#FDCE19;" d="M370.031,981.561c-11.548-0.275-18.109,14.071-16.62,25.527c1.489,11.455,7.716,21.962,8.656,33.476
		c1.006,12.333-4.132,24.248-6.116,36.462c-1.984,12.214,0.631,27.084,11.724,32.567c17.22-8.664,37.406-23.167,33.035-41.941
		c-1.5-6.442-5.824-11.824-8.393-17.919c-3.451-8.185-3.577-17.717-0.343-25.991c4.859-12.432,17.083-23.964,12.99-36.669
		c-4.204-13.051-21.612-14.935-35.313-14.397"/>
	<path style="fill:#F8B320;" d="M668.985,1242.688c14.898,13.244,38.158,4.904,57.92,7.517
		c16.518,2.184,30.741,12.314,44.205,22.129c26.87,19.589,54.281,39.726,73.061,67.168c6.294,9.198,11.816,19.412,20.986,25.745
		c20.355,14.058,47.676,3.349,71.283-4.04c28.166-8.816,58.012-12.233,87.442-10.01c9.567,0.723,19.407,2.007,28.589-0.775
		c9.182-2.782,17.565-11.065,16.814-20.629c-0.813-10.358-11.469-17.135-21.578-19.536c-32.424-7.7-69.05,11.643-98.665-3.64
		c-27.314-14.095-34.94-48.57-53.904-70.636c-18.945-22.045-49.421-39.623-77.424-47.452
		C770.216,1175.25,688.549,1192.494,668.985,1242.688z"/>
	<path style="fill:#F8B320;" d="M435.817,1093.8c0.816,11.802,6.294,23.959,16.65,29.678c12.242,6.76,27.794,3.113,40.908,7.968
		c28.903,10.7,31.018,54.29,57.571,69.936c24.777,14.6,56.451-2.318,84.876,2.047c4.49,0.69,10.2,1.405,12.528-2.495
		c1.783-2.986,0.24-6.791-1.416-9.849c-16.565-30.592-44.189-55.042-76.567-67.767c-6.421-2.524-13.204-4.71-18.354-9.302
		c-4.553-4.061-7.404-9.631-10.699-14.766C520.199,1066.339,431.198,1026.948,435.817,1093.8z"/>
	<path style="fill:#FFDF0F;" d="M854.444,1296.774c3.774,7.75,5.998,16.204,10.074,23.799c4.076,7.595,10.639,14.579,19.134,16.037
		c7.79,1.338,15.473-2.148,23.012-4.52c19.346-6.084,50.66,3.663,70.907,4.816c11.691-20.37-38.888-13.417-65.258-33.882
		c-5.733-4.449-14.121-3.729-20.496-7.197c-26.208-14.259-88.697-99.967-131.44-70.685c-22.972,15.737,29.069,29.031,43.664,35.19
		C825.463,1269.372,843.173,1273.626,854.444,1296.774z"/>
	<path style="fill:#FFDF0F;" d="M493.588,1105.339c14.705,2.365,24.544,16.283,30.853,29.775
		c6.309,13.492,11.361,28.472,22.974,37.797c5.81,4.665,12.878,7.533,20.081,9.435c8.196,2.164,16.857,3.145,25.165,1.457
		c2.065-0.42,4.215-1.072,5.617-2.644c3.438-3.854,0.184-10.035-3.875-13.228c-9.674-7.61-23.057-8.852-33.226-15.784
		c-11.54-7.866-17.155-21.642-24.46-33.545c-6.375-10.386-14.414-19.749-23.716-27.622c-3.253-2.753-6.727-5.363-10.734-6.832
		c-9.592-3.512-33.216-7.574-36.332,5.247C461.884,1106.053,484.187,1103.828,493.588,1105.339z"/>
	<path style="fill:#FFDF0F;" d="M1045.669,1326.554c-3.558-3.578-11.51-3.911-17.645-3.446c-17.056,0-21.904,3.304-28.674,6.831
		c0.09,4.608,6.028,6.37,10.635,6.508c11.66,0.348,23.377-1.255,34.516-4.722c1.438-0.448,3.157-1.325,3.072-2.828
		C1047.513,1327.85,1046.408,1327.297,1045.669,1326.554z"/>
	<path style="fill:#F0821A;" d="M1538.162,1429.465c-8.363,10.263-13.427,24.117-10.03,36.913
		c3.167,11.926,12.98,21.061,17.044,32.713c4.233,12.136,1.827,25.798,5.922,37.982c1.276,3.798,4.054,7.935,8.055,7.729
		c1.771-0.091,3.373-1.057,4.785-2.13c10.725-8.154,14.072-22.829,14.371-36.299c0.299-13.47-1.664-27.193,1.568-40.273
		c6.816-27.589,34.35-44.822,47.392-70.071c1.36-2.632,2.587-5.54,2.144-8.469c-1.235-8.163-12.758-9.035-20.701-6.783
		C1583.8,1387.841,1554.552,1409.351,1538.162,1429.465z"/>
	<path style="fill:#FFDF0F;" d="M644.595,1484.358c1.308,1.782,2.831,3.562,4.917,4.292c5.96,2.086,10.766-5.169,12.576-11.218
		c4.031-13.47,5.861-27.596,5.395-41.649c-0.805-24.297-19.06-28.761-28.39-6.74C631.552,1446.838,633.01,1468.581,644.595,1484.358
		z"/>
	<path style="fill:#FFDF0F;" d="M1552.954,1796.835c-5.359,16.774-4.047,35.581,3.589,51.448c2.015,4.187,5.47,8.729,10.095,8.278
		c2.697-0.263,4.898-2.218,6.734-4.21c14.739-15.996,18.332-40.087,13.289-61.245c-1.727-7.248-9.278-27.784-20.004-24.985
		C1559.563,1767.972,1554.999,1790.437,1552.954,1796.835z"/>
</g>
</svg>
