<svg version="1.1" id="Layer_1" xmlns="http://www.w3.org/2000/svg" xmlns:xlink="http://www.w3.org/1999/xlink" x="0px" y="0px"
	 width="100%" viewBox="0 0 5210 4168" enable-background="new 0 0 5210 4168" xml:space="preserve">
<path fill="#FFF2CD" opacity="1.000000" stroke="none" 
	d="
M5216.000000,8.000000 
	C5216.000000,1395.761841 5216.000000,2783.523682 5216.000000,4172.000000 
	C3482.535889,4172.000000 1749.071533,4172.000000 13.800955,4170.125488 
	C11.995298,2793.195557 11.995783,1418.140381 11.998509,43.085011 
	C11.998525,35.753265 11.775265,28.408630 12.148219,21.095102 
	C12.340545,17.323633 13.617605,13.607481 14.247004,10.615244 
	C16.678122,9.577273 17.882034,8.612756 19.086088,8.612584 
	C1751.390747,8.365815 3483.695312,8.183064 5216.000000,8.000000 
M4136.035156,2020.886353 
	C4123.751953,1973.709229 4099.180664,1934.282349 4061.669922,1903.026123 
	C4052.463623,1895.354858 4043.286865,1887.646362 4033.981445,1880.097168 
	C4002.960938,1854.931274 3971.931885,1829.775391 3940.823242,1804.718872 
	C3910.236328,1780.082397 3879.506592,1755.622803 3848.915527,1730.991455 
	C3818.322021,1706.358154 3787.858398,1681.563721 3757.274170,1656.919067 
	C3712.178223,1620.581543 3667.050781,1584.282837 3621.888428,1548.027710 
	C3589.702881,1522.190186 3557.320068,1496.596436 3525.309326,1470.545044 
	C3519.021240,1465.427368 3513.146484,1463.970703 3505.180908,1465.499878 
	C3484.941895,1469.385742 3464.525391,1472.664429 3443.788086,1471.442139 
	C3434.520264,1470.895874 3425.328613,1469.158447 3416.065430,1468.429688 
	C3379.604004,1465.561401 3345.636963,1454.604980 3313.885742,1436.763916 
	C3290.819336,1423.802612 3272.228760,1405.916626 3258.035645,1383.541138 
	C3246.257812,1364.973022 3241.134521,1344.105835 3241.732666,1322.709229 
	C3242.230957,1304.875000 3247.035889,1287.242676 3254.734619,1270.737671 
	C3256.635498,1266.663086 3257.928467,1262.305298 3260.047607,1256.607178 
	C3256.737061,1253.899048 3253.676025,1251.367554 3250.585938,1248.872070 
	C3221.064453,1225.029541 3191.560791,1201.165649 3162.008057,1177.361816 
	C3123.125732,1146.042969 3084.173584,1114.810913 3045.309570,1083.468994 
	C3014.735840,1058.812744 2984.285889,1034.003052 2953.718018,1009.339600 
	C2907.609863,972.137817 2861.510254,934.925354 2815.278076,897.877991 
	C2795.008301,881.635193 2774.423828,865.977112 2750.477539,855.045471 
	C2705.481934,834.504517 2658.704102,828.070068 2610.359863,837.552185 
	C2556.203613,848.174377 2502.370605,860.439392 2448.378174,871.902527 
	C2396.987549,882.813293 2345.560303,893.553040 2294.172119,904.476196 
	C2240.835693,915.813477 2187.536377,927.323242 2134.203857,938.678772 
	C2081.518311,949.896729 2028.804810,960.985474 1976.115601,972.187744 
	C1922.129028,983.665771 1868.163818,995.244019 1814.177124,1006.720703 
	C1761.486206,1017.922058 1708.773438,1029.021606 1656.081787,1040.219238 
	C1602.094238,1051.692261 1548.126587,1063.259888 1494.138550,1074.731079 
	C1441.448242,1085.926514 1388.815918,1097.413330 1336.019531,1108.085815 
	C1299.251953,1115.518066 1263.373901,1124.816162 1231.691895,1146.064697 
	C1208.302612,1161.751465 1186.637817,1179.166382 1169.634277,1205.401489 
	C1134.339722,1254.675781 1121.036255,1309.756348 1126.850464,1369.984009 
	C1119.320801,1375.894775 1111.712402,1381.259277 1104.798706,1387.405029 
	C1081.301270,1408.292969 1067.661255,1434.086182 1066.874146,1466.001709 
	C1065.957764,1503.163574 1078.521973,1535.014648 1103.830444,1562.243774 
	C1111.479736,1570.473511 1117.587036,1580.131592 1124.464355,1589.086426 
	C1127.569824,1593.130005 1127.826660,1597.473877 1126.805054,1602.310547 
	C1124.742554,1612.075562 1123.303711,1621.978149 1121.066406,1631.699463 
	C1116.138306,1653.113647 1111.063477,1674.498291 1105.702515,1695.807861 
	C1097.783691,1727.284302 1095.704102,1759.253052 1101.429443,1791.017334 
	C1109.336548,1834.885498 1127.151123,1874.924438 1153.522339,1911.043091 
	C1165.764160,1927.809692 1179.903198,1942.822754 1195.002319,1956.987915 
	C1199.358276,1961.074463 1203.837158,1964.808594 1204.982788,1971.395386 
	C1207.262451,1984.501587 1209.424194,1997.553955 1208.195557,2011.343750 
	C1201.609741,2014.975952 1195.185303,2018.429199 1188.846802,2022.033936 
	C1175.815186,2029.445435 1165.255737,2039.432495 1158.036499,2052.652588 
	C1147.385010,2072.158447 1152.159058,2092.363770 1170.091064,2105.647705 
	C1174.676880,2109.044434 1180.867065,2110.525879 1184.547119,2116.520264 
	C1181.151733,2120.432617 1178.144287,2123.861328 1175.176147,2127.323730 
	C1142.132935,2165.867432 1139.564819,2216.789307 1168.615356,2258.447998 
	C1177.046509,2270.538574 1186.586792,2281.761963 1198.319702,2290.695801 
	C1211.554810,2300.773438 1225.394165,2310.057861 1238.965698,2319.694092 
	C1243.223511,2322.717041 1247.465576,2325.762451 1251.488892,2328.636230 
	C1257.081543,2371.765625 1262.548706,2413.927002 1267.891357,2455.129150 
	C1262.450073,2460.581299 1257.984375,2464.583252 1254.096313,2469.084473 
	C1250.191650,2473.604492 1246.441406,2478.366211 1243.348999,2483.462402 
	C1221.082886,2520.156738 1230.313721,2563.122070 1265.661011,2587.323975 
	C1270.579956,2590.692139 1275.852905,2593.821533 1281.390991,2595.939453 
	C1288.915771,2598.817627 1292.736694,2604.110596 1295.922485,2611.208984 
	C1301.638306,2623.945068 1307.538940,2636.761963 1314.953979,2648.543457 
	C1348.908813,2702.494141 1397.648804,2736.082031 1459.235352,2751.578369 
	C1503.801025,2762.791748 1548.345947,2774.089844 1592.853882,2785.529541 
	C1788.303345,2835.764648 1983.731323,2886.083008 2179.176025,2936.335938 
	C2319.149658,2972.326172 2459.138428,3008.258301 2599.119141,3044.221191 
	C2770.061279,3088.138672 2940.995605,3132.086426 3111.945801,3175.973877 
	C3259.027100,3213.733643 3406.145752,3251.349609 3553.202148,3289.206299 
	C3588.687012,3298.341553 3624.407471,3300.046631 3660.090820,3292.133545 
	C3736.707764,3275.143799 3792.163574,3230.989990 3824.784668,3159.461914 
	C3832.755615,3141.983398 3837.932617,3123.174072 3843.696289,3104.758301 
	C3854.032715,3071.732178 3863.840088,3038.540527 3873.934082,3005.200684 
	C3881.312500,3001.323486 3888.483154,2997.829102 3895.393799,2993.879395 
	C3945.306885,2965.348877 3980.458984,2925.484375 3989.842773,2867.056885 
	C3996.535156,2825.386475 3987.535156,2787.596191 3957.982178,2755.991211 
	C3955.777588,2753.634033 3954.001221,2750.876465 3951.760498,2747.958984 
	C3977.924561,2661.637695 4003.977539,2575.682129 4030.046631,2489.673340 
	C4036.783936,2487.823730 4042.417236,2485.801758 4048.226318,2484.763184 
	C4075.846436,2479.824463 4097.657715,2465.272217 4114.927734,2443.852051 
	C4146.169434,2405.103027 4155.172852,2362.178467 4137.588379,2314.723389 
	C4136.019531,2310.489258 4134.493164,2306.238770 4132.985840,2302.102051 
	C4137.860840,2296.978027 4142.193848,2292.843018 4146.045410,2288.300049 
	C4160.043945,2271.787598 4163.865723,2252.908447 4158.176270,2232.168213 
	C4154.400391,2218.404785 4146.723633,2206.711426 4137.594727,2195.939453 
	C4133.319824,2190.894775 4128.799316,2186.058105 4123.762207,2180.424561 
	C4125.843750,2173.423584 4127.757324,2166.421387 4130.008301,2159.529541 
	C4135.607910,2142.385010 4139.875000,2124.944824 4142.044434,2107.025635 
	C4145.443359,2078.952393 4144.244141,2051.201172 4136.035156,2020.886353 
M3228.602539,3544.892822 
	C3208.243164,3542.171387 3187.900879,3539.314209 3167.519043,3536.774170 
	C3153.045166,3534.970459 3138.537598,3533.375488 3124.010010,3532.082031 
	C3104.849854,3530.376709 3085.654053,3529.067383 3066.476318,3527.553223 
	C3065.158203,3527.448975 3063.873047,3526.969482 3062.554932,3526.821045 
	C3054.005859,3525.856445 3045.467041,3524.741211 3036.894043,3524.066650 
	C3030.924805,3523.596924 3024.548096,3524.992676 3018.978760,3523.386475 
	C3003.895020,3519.036621 2988.596436,3520.321533 2973.335693,3519.924316 
	C2969.343262,3519.820312 2965.073486,3520.417725 2961.414795,3519.217529 
	C2947.728760,3514.728271 2933.690186,3516.409424 2919.767578,3515.979736 
	C2910.450439,3515.691895 2900.811279,3516.804932 2891.902100,3514.750244 
	C2881.954590,3512.456055 2872.160889,3512.121094 2862.195557,3512.057129 
	C2846.196777,3511.954590 2830.196045,3512.047852 2814.198975,3511.855469 
	C2808.897217,3511.791748 2803.595459,3511.181152 2798.306885,3510.682861 
	C2789.738770,3509.875488 2781.183594,3508.213623 2772.619873,3508.194824 
	C2679.291748,3507.990234 2585.962402,3507.863037 2492.634521,3508.133789 
	C2469.419678,3508.201172 2445.992188,3505.598389 2423.039062,3511.682129 
	C2421.158447,3512.180664 2419.056641,3511.836182 2417.057861,3511.897217 
	C2387.182617,3512.808105 2357.348877,3511.135742 2327.411865,3515.334717 
	C2305.216064,3518.447998 2282.424805,3516.027588 2259.848633,3519.405273 
	C2242.269043,3522.035645 2224.187500,3520.278076 2206.278809,3523.371826 
	C2190.723145,3526.059082 2174.645508,3525.243896 2158.721191,3527.216309 
	C2132.459961,3530.468750 2106.018066,3533.303467 2079.642578,3535.212646 
	C2053.747070,3537.087158 2028.357178,3541.928955 2002.661743,3544.754150 
	C1973.080200,3548.006348 1943.948364,3555.152344 1914.435425,3559.277832 
	C1882.156738,3563.789795 1850.664917,3571.826416 1818.855225,3578.447021 
	C1780.987549,3586.328857 1744.337769,3598.415771 1708.061279,3611.562500 
	C1684.849854,3619.974365 1662.777344,3631.096680 1642.415283,3645.103027 
	C1630.238159,3653.479492 1619.965454,3664.120850 1614.966797,3678.563965 
	C1613.498169,3682.807373 1612.121338,3687.836426 1613.021362,3692.004639 
	C1615.716309,3704.484375 1620.199219,3716.452881 1630.883301,3724.619873 
	C1638.260010,3730.259033 1645.618652,3736.122803 1653.692871,3740.614258 
	C1691.693726,3761.753906 1732.048218,3777.027832 1774.010864,3788.358154 
	C1820.185791,3800.825684 1866.810547,3811.176514 1913.878784,3819.576416 
	C1930.196289,3822.488525 1946.518799,3825.414795 1962.911133,3827.849121 
	C1976.678833,3829.893311 1990.600952,3830.901855 2004.365112,3832.966553 
	C2022.048218,3835.619385 2039.627563,3838.673828 2057.475586,3840.475830 
	C2071.310303,3841.873291 2085.170166,3843.334961 2099.005371,3844.871094 
	C2123.370605,3847.576416 2147.649170,3850.662354 2172.145020,3852.461182 
	C2191.324463,3853.869873 2210.422119,3856.495850 2229.718750,3856.479736 
	C2230.377197,3856.479248 2231.080566,3856.560303 2231.687500,3856.796875 
	C2242.592773,3861.050293 2254.022705,3859.732666 2265.303223,3860.000977 
	C2275.290771,3860.238770 2285.633301,3858.941895 2295.175293,3861.129883 
	C2307.117676,3863.868408 2318.927734,3863.763916 2330.873047,3863.994141 
	C2344.194824,3864.251221 2357.825439,3862.774902 2370.752441,3865.150879 
	C2383.391357,3867.474121 2395.838135,3867.840332 2408.446533,3867.932129 
	C2431.111084,3868.096924 2453.777832,3867.963135 2476.442139,3868.161133 
	C2482.400879,3868.213379 2488.360107,3868.953613 2494.307129,3869.505127 
	C2502.218506,3870.238770 2510.116211,3871.771240 2518.023193,3871.795654 
	C2580.686279,3871.988281 2643.349854,3871.914795 2706.013428,3871.885742 
	C2711.339844,3871.883301 2717.002441,3872.725586 2721.928467,3871.244629 
	C2735.685547,3867.107666 2749.657959,3868.224121 2763.593750,3868.114746 
	C2786.258301,3867.936768 2808.924316,3867.999756 2831.589844,3867.912842 
	C2836.251709,3867.895020 2841.218018,3868.667236 2845.519043,3867.354736 
	C2861.219482,3862.564941 2877.251953,3864.506836 2893.164307,3864.022461 
	C2903.150146,3863.718262 2913.472412,3865.036621 2923.041016,3862.912109 
	C2934.312012,3860.409424 2945.455322,3860.500488 2956.729736,3859.951904 
	C2981.926270,3858.726318 3007.105957,3857.147949 3032.291016,3855.689453 
	C3033.616211,3855.612793 3035.030029,3855.569092 3036.231445,3855.085693 
	C3045.824951,3851.224609 3055.899658,3852.217773 3065.860596,3851.954102 
	C3070.515625,3851.830566 3075.194092,3851.708496 3079.810791,3851.156494 
	C3098.875977,3848.876953 3117.918701,3846.412109 3136.975098,3844.057129 
	C3148.151855,3842.675781 3159.330322,3841.300781 3170.522705,3840.056152 
	C3185.679443,3838.369873 3200.913574,3837.254639 3216.000000,3835.094727 
	C3238.943115,3831.810059 3261.814697,3827.998047 3284.666992,3824.115967 
	C3310.807129,3819.675781 3337.101074,3815.844238 3362.950439,3810.059814 
	C3396.629395,3802.523926 3429.888184,3793.130371 3463.417480,3784.901123 
	C3497.225098,3776.603760 3529.253662,3763.833740 3560.186768,3748.026855 
	C3575.178955,3740.365723 3587.587158,3729.623779 3600.155273,3718.547852 
	C3615.854736,3704.712402 3616.652344,3670.522461 3599.604980,3657.606201 
	C3593.270752,3652.806641 3587.719971,3646.916016 3581.168701,3642.470947 
	C3557.295410,3626.272949 3530.774902,3615.473145 3503.742432,3605.932617 
	C3463.575928,3591.757324 3422.523193,3580.697998 3380.807617,3572.144531 
	C3354.172607,3566.683105 3327.545654,3561.127686 3300.778076,3556.387695 
	C3277.949219,3552.344971 3254.925293,3549.405762 3228.602539,3544.892822 
z"/>
<path fill="#FFF6DC" opacity="1.000000" stroke="none" 
	d="
M5216.000000,6.000000 
	C3483.695312,8.183064 1751.390747,8.365815 19.086088,8.612584 
	C17.882034,8.612756 16.678122,9.577273 14.247004,10.615244 
	C13.617605,13.607481 12.340545,17.323633 12.148219,21.095102 
	C11.775265,28.408630 11.998525,35.753265 11.998509,43.085011 
	C11.995783,1418.140381 11.995298,2793.195557 11.997335,4170.125488 
	C9.333900,4172.000000 6.667801,4172.000000 4.001276,4172.000000 
	C4.000851,2782.962646 4.000851,1393.925415 4.000851,4.000000 
	C1741.333252,4.000000 3478.666504,4.000000 5216.000000,6.000000 
z"/>
<path fill="#FFC000" opacity="1.000000" stroke="none" 
	d="
M4136.016602,2023.966064 
	C4144.244141,2051.201172 4145.443359,2078.952393 4142.044434,2107.025635 
	C4139.875000,2124.944824 4135.607910,2142.385010 4130.008301,2159.529541 
	C4127.757324,2166.421387 4125.843750,2173.423584 4123.762207,2180.424561 
	C4128.799316,2186.058105 4133.319824,2190.894775 4137.594727,2195.939453 
	C4146.723633,2206.711426 4154.400391,2218.404785 4158.176270,2232.168213 
	C4163.865723,2252.908447 4160.043945,2271.787598 4146.045410,2288.300049 
	C4142.193848,2292.843018 4137.860840,2296.978027 4132.985840,2302.102051 
	C4134.493164,2306.238770 4136.019531,2310.489258 4137.588379,2314.723389 
	C4155.172852,2362.178467 4146.169434,2405.103027 4114.927734,2443.852051 
	C4097.657715,2465.272217 4075.846436,2479.824463 4048.226318,2484.763184 
	C4042.417236,2485.801758 4036.783936,2487.823730 4030.046631,2489.673340 
	C4003.977539,2575.682129 3977.924561,2661.637695 3951.760498,2747.958984 
	C3954.001221,2750.876465 3955.777588,2753.634033 3957.982178,2755.991211 
	C3987.535156,2787.596191 3996.535156,2825.386475 3989.842773,2867.056885 
	C3980.458984,2925.484375 3945.306885,2965.348877 3895.393799,2993.879395 
	C3888.483154,2997.829102 3881.312500,3001.323486 3873.934082,3005.200684 
	C3863.840088,3038.540527 3854.032715,3071.732178 3843.696289,3104.758301 
	C3837.932617,3123.174072 3832.755615,3141.983398 3824.784668,3159.461914 
	C3792.163574,3230.989990 3736.707764,3275.143799 3660.090820,3292.133545 
	C3624.407471,3300.046631 3588.687012,3298.341553 3553.202148,3289.206299 
	C3406.145752,3251.349609 3259.027100,3213.733643 3111.945801,3175.973877 
	C2940.995605,3132.086426 2770.061279,3088.138672 2599.119141,3044.221191 
	C2459.138428,3008.258301 2319.149658,2972.326172 2179.176025,2936.335938 
	C1983.731323,2886.083008 1788.303345,2835.764648 1592.853882,2785.529541 
	C1548.345947,2774.089844 1503.801025,2762.791748 1459.235352,2751.578369 
	C1397.648804,2736.082031 1348.908813,2702.494141 1314.953979,2648.543457 
	C1307.538940,2636.761963 1301.638306,2623.945068 1295.922485,2611.208984 
	C1292.736694,2604.110596 1288.915771,2598.817627 1281.390991,2595.939453 
	C1275.852905,2593.821533 1270.579956,2590.692139 1265.661011,2587.323975 
	C1230.313721,2563.122070 1221.082886,2520.156738 1243.348999,2483.462402 
	C1246.441406,2478.366211 1250.191650,2473.604492 1254.096313,2469.084473 
	C1257.984375,2464.583252 1262.450073,2460.581299 1267.891357,2455.129150 
	C1262.548706,2413.927002 1257.081543,2371.765625 1251.488892,2328.636230 
	C1247.465576,2325.762451 1243.223511,2322.717041 1238.965698,2319.694092 
	C1225.394165,2310.057861 1211.554810,2300.773438 1198.319702,2290.695801 
	C1186.586792,2281.761963 1177.046509,2270.538574 1168.615356,2258.447998 
	C1139.564819,2216.789307 1142.132935,2165.867432 1175.176147,2127.323730 
	C1178.144287,2123.861328 1181.151733,2120.432617 1184.547119,2116.520264 
	C1180.867065,2110.525879 1174.676880,2109.044434 1170.091064,2105.647705 
	C1152.159058,2092.363770 1147.385010,2072.158447 1158.036499,2052.652588 
	C1165.255737,2039.432495 1175.815186,2029.445435 1188.846802,2022.033936 
	C1195.185303,2018.429199 1201.609741,2014.975952 1208.195557,2011.343750 
	C1209.424194,1997.553955 1207.262451,1984.501587 1204.982788,1971.395386 
	C1203.837158,1964.808594 1199.358276,1961.074463 1195.002319,1956.987915 
	C1179.903198,1942.822754 1165.764160,1927.809692 1153.522339,1911.043091 
	C1127.151123,1874.924438 1109.336548,1834.885498 1101.429443,1791.017334 
	C1095.704102,1759.253052 1097.783691,1727.284302 1105.702515,1695.807861 
	C1111.063477,1674.498291 1116.138306,1653.113647 1121.066406,1631.699463 
	C1123.303711,1621.978149 1124.742554,1612.075562 1126.805054,1602.310547 
	C1127.826660,1597.473877 1127.569824,1593.130005 1124.464355,1589.086426 
	C1117.587036,1580.131592 1111.479736,1570.473511 1103.830444,1562.243774 
	C1078.521973,1535.014648 1065.957764,1503.163574 1066.874146,1466.001709 
	C1067.661255,1434.086182 1081.301270,1408.292969 1104.798706,1387.405029 
	C1111.712402,1381.259277 1119.320801,1375.894775 1126.850464,1369.984009 
	C1121.036255,1309.756348 1134.339722,1254.675781 1172.262939,1204.579956 
	C1179.434570,1204.617310 1184.118408,1205.027344 1188.499023,1206.402954 
	C1246.115845,1224.495605 1303.903687,1242.080322 1361.210938,1261.110474 
	C1412.855957,1278.260010 1463.940186,1297.095703 1515.316284,1315.059937 
	C1543.490234,1324.911011 1571.756348,1334.497925 1599.971191,1345.479736 
	C1600.023682,1348.457397 1600.085815,1350.159180 1598.841309,1352.626343 
	C1595.796265,1356.118896 1593.318970,1358.628296 1592.439575,1361.609009 
	C1586.694336,1381.083740 1587.006104,1400.426147 1591.745239,1420.352783 
	C1598.302124,1447.922241 1614.936523,1469.072388 1632.197266,1490.127686 
	C1645.272949,1497.925293 1655.669312,1509.133911 1668.940063,1517.046875 
	C1699.760376,1535.423950 1732.266724,1546.659912 1768.149170,1548.103638 
	C1772.075195,1548.261475 1775.965698,1549.316040 1779.871216,1549.962646 
	C1783.118286,1550.500000 1786.817017,1552.330322 1789.530518,1551.369751 
	C1801.148804,1547.257446 1813.431519,1549.810425 1824.952515,1547.470215 
	C1868.841797,1538.554321 1908.635010,1521.980957 1935.395630,1483.261353 
	C1936.449097,1481.736938 1938.580933,1480.958008 1941.653809,1480.064209 
	C1972.735107,1492.220337 2002.409424,1504.053345 2032.001343,1516.089233 
	C2075.153320,1533.640625 2118.219482,1551.402466 2161.372070,1568.952271 
	C2195.897705,1582.993774 2230.519287,1596.799194 2265.059082,1610.806152 
	C2311.318115,1629.565430 2357.335205,1648.939453 2403.825195,1667.105103 
	C2468.911133,1692.536743 2534.221924,1717.404663 2599.653564,1741.935425 
	C2652.626221,1761.795532 2705.675293,1781.505371 2759.126709,1800.022949 
	C2840.271973,1828.135010 2921.675537,1855.534058 3004.171631,1879.506958 
	C3046.333740,1891.759155 3088.355225,1904.595825 3130.852051,1915.574829 
	C3228.029053,1940.680420 3325.566650,1964.199097 3424.576904,1981.333496 
	C3464.486572,1988.240112 3504.350830,1995.193848 3544.521484,2000.359619 
	C3557.027344,2001.968018 3569.515381,2003.720215 3582.001953,2005.474243 
	C3606.313232,2008.889648 3630.579590,2012.659302 3654.935791,2015.712891 
	C3681.281250,2019.015869 3707.717285,2021.592041 3734.096191,2024.639893 
	C3745.960449,2026.010742 3757.788086,2027.708130 3769.620117,2029.345825 
	C3784.733887,2031.437866 3799.778076,2034.252441 3814.954834,2035.614746 
	C3838.111328,2037.693115 3861.355957,2038.792725 3884.562744,2040.313843 
	C3886.556396,2040.444458 3888.657715,2040.260132 3890.520996,2040.833740 
	C3902.880615,2044.639160 3915.600830,2043.981201 3928.222412,2043.796509 
	C3961.461182,2043.310059 3994.623047,2044.490112 4027.938477,2040.850464 
	C4058.400879,2037.522461 4088.533936,2033.400024 4118.376465,2026.658447 
	C4124.164062,2025.351196 4130.131836,2024.842896 4136.016602,2023.966064 
M3878.482910,2474.872559 
	C3891.138184,2464.607178 3894.665771,2449.503418 3899.480957,2435.110352 
	C3905.499023,2417.122803 3903.349121,2398.441406 3904.308105,2379.985596 
	C3905.157227,2363.634521 3902.106201,2348.150391 3895.683350,2333.565918 
	C3882.892578,2304.521973 3864.271240,2281.373779 3830.468262,2275.753174 
	C3823.363037,2274.571533 3815.955322,2271.911865 3809.128662,2272.920654 
	C3778.730469,2277.413086 3755.318604,2293.777832 3737.324463,2318.257324 
	C3736.248291,2319.721680 3736.351074,2322.052734 3733.492676,2325.306152 
	C3732.525879,2326.208984 3731.285645,2326.947754 3730.631592,2328.038086 
	C3704.470947,2371.658203 3699.708984,2417.749268 3717.251709,2465.272705 
	C3728.956299,2496.980713 3750.663086,2519.037842 3785.582275,2525.101318 
	C3790.752686,2525.999023 3796.133545,2528.198242 3801.076172,2527.472900 
	C3826.723389,2523.707764 3849.138672,2513.346436 3865.870117,2492.761963 
	C3869.962402,2487.727295 3875.968262,2483.789062 3878.482910,2474.872559 
M3242.430664,3022.756592 
	C3260.093018,3007.401611 3270.255615,2987.619629 3275.652588,2965.265869 
	C3280.352783,2945.799805 3280.927490,2926.508301 3276.371094,2906.486816 
	C3265.993164,2860.883789 3238.737793,2831.794678 3194.704834,2817.730469 
	C3190.991943,2816.544678 3186.906250,2816.153076 3182.980469,2816.076904 
	C3171.711670,2815.857910 3160.330811,2815.003906 3149.185303,2816.192383 
	C3126.976807,2818.560547 3106.946777,2826.343018 3089.490479,2845.143066 
	C3082.280518,2852.899170 3073.670166,2859.775635 3068.135498,2868.584717 
	C3054.114014,2890.900146 3046.506836,2915.134766 3047.744141,2942.236572 
	C3049.141846,2972.859375 3060.029785,2999.181152 3079.968018,3021.749268 
	C3111.128174,3057.020020 3165.387695,3066.183350 3208.183838,3046.812256 
	C3219.731201,3041.585449 3233.354736,3037.032715 3242.430664,3022.756592 
M2217.704590,2569.644287 
	C2208.323730,2580.575928 2204.843994,2594.222412 2201.014160,2607.519531 
	C2198.470703,2616.350586 2196.419922,2625.685791 2196.426270,2634.793701 
	C2196.433838,2645.246094 2198.114258,2655.898682 2200.560791,2666.106445 
	C2205.895996,2688.366455 2215.679688,2709.019775 2231.810547,2725.180664 
	C2248.233154,2741.633789 2267.607422,2754.327881 2290.954834,2760.074219 
	C2303.344727,2763.123779 2315.672852,2764.081543 2328.313477,2764.080322 
	C2360.435547,2764.077393 2387.435303,2751.622070 2411.122803,2730.836914 
	C2425.869873,2717.896729 2436.016113,2701.702148 2444.383789,2680.809570 
	C2446.051514,2674.403809 2447.737061,2668.002441 2449.383057,2661.591064 
	C2453.416748,2645.880859 2452.565674,2630.305908 2449.612061,2614.406738 
	C2443.899170,2583.651367 2428.805176,2558.760986 2404.962158,2538.981445 
	C2395.269043,2530.940674 2385.142578,2523.707031 2372.884521,2519.474854 
	C2358.301270,2514.439697 2343.797363,2510.584961 2328.173096,2511.796143 
	C2316.953613,2512.666016 2305.174805,2510.851807 2294.520752,2513.612793 
	C2265.554199,2521.119873 2240.928223,2536.382568 2222.437988,2560.455322 
	C2220.921875,2562.429199 2220.662354,2565.368164 2217.704590,2569.644287 
M1986.494019,2107.009521 
	C1989.979004,2104.037109 1994.130737,2101.571289 1996.838623,2098.008057 
	C2012.062866,2077.974854 2021.189209,2054.964600 2023.502075,2030.262573 
	C2026.298706,2000.394531 2024.189087,1970.819336 2011.249512,1942.593628 
	C2001.657715,1921.670288 1988.163086,1903.564087 1972.330688,1887.746216 
	C1962.301758,1877.726318 1950.080811,1869.290405 1937.290771,1861.854126 
	C1912.032715,1847.168823 1884.750977,1838.972046 1856.372314,1836.517700 
	C1814.238770,1832.873291 1774.998901,1843.708130 1739.230225,1866.889160 
	C1723.934937,1876.802002 1711.963623,1890.091797 1699.565308,1903.000977 
	C1697.482300,1905.170044 1697.077148,1908.950562 1693.761230,1913.666382 
	C1676.542480,1939.029053 1666.795654,1966.714844 1668.022461,1997.691772 
	C1668.492798,2009.567505 1667.377563,2021.357910 1670.230347,2033.330811 
	C1676.339478,2058.970947 1687.192505,2081.857422 1703.132812,2102.877686 
	C1717.476685,2121.792969 1735.036987,2136.495361 1755.593140,2147.703613 
	C1787.055786,2164.858887 1820.377075,2173.475342 1856.756348,2172.362305 
	C1894.679688,2171.202148 1928.444092,2159.363770 1958.780518,2137.824951 
	C1969.181274,2130.440430 1980.724365,2122.424072 1986.494019,2107.009521 
M3072.350830,2162.144531 
	C3073.553467,2153.637939 3074.995605,2145.156982 3075.899658,2136.618652 
	C3077.106689,2125.218262 3074.016357,2114.250732 3072.242432,2103.101807 
	C3065.249268,2059.151367 3042.482178,2023.832520 3011.270996,1993.813843 
	C2986.078369,1969.583984 2955.310059,1953.485229 2923.108398,1940.324829 
	C2892.258789,1927.717285 2859.802002,1920.342285 2827.500244,1912.959106 
	C2799.069336,1906.460571 2770.133545,1901.838013 2740.644531,1903.874756 
	C2735.341064,1904.241089 2729.969727,1904.240845 2724.665771,1903.879761 
	C2702.977783,1902.403076 2682.618896,1907.720093 2662.237061,1914.480957 
	C2630.816162,1924.903931 2608.633301,1945.557617 2593.021729,1973.960205 
	C2575.695557,2005.482666 2567.558350,2039.367676 2568.023682,2075.319092 
	C2568.212402,2089.904785 2567.580566,2104.389404 2571.388184,2118.903320 
	C2574.726807,2131.629395 2574.411865,2145.301758 2577.620605,2158.076172 
	C2585.740479,2190.399414 2597.346436,2221.497803 2613.378662,2250.859863 
	C2626.159912,2274.268066 2641.091309,2296.357178 2658.745117,2316.129883 
	C2679.296387,2339.147217 2704.367188,2356.252686 2733.779541,2367.205566 
	C2773.134766,2381.860840 2812.621582,2387.978516 2854.713135,2380.635254 
	C2920.916992,2369.085449 2973.698730,2335.429443 3015.949951,2285.129150 
	C3044.897949,2250.666748 3064.686279,2210.749023 3072.350830,2162.144531 
z"/>
<path fill="#FFE052" opacity="1.000000" stroke="none" 
	d="
M4136.025879,2022.426270 
	C4130.131836,2024.842896 4124.164062,2025.351196 4118.376465,2026.658447 
	C4088.533936,2033.400024 4058.400879,2037.522461 4027.938477,2040.850464 
	C3994.623047,2044.490112 3961.461182,2043.310059 3928.222412,2043.796509 
	C3915.600830,2043.981201 3902.880615,2044.639160 3890.520996,2040.833740 
	C3888.657715,2040.260132 3886.556396,2040.444458 3884.562744,2040.313843 
	C3861.355957,2038.792725 3838.111328,2037.693115 3814.954834,2035.614746 
	C3799.778076,2034.252441 3784.733887,2031.437866 3769.620117,2029.345825 
	C3757.788086,2027.708130 3745.960449,2026.010742 3734.096191,2024.639893 
	C3707.717285,2021.592041 3681.281250,2019.015869 3654.935791,2015.712891 
	C3630.579590,2012.659302 3606.313232,2008.889648 3582.001953,2005.474243 
	C3569.515381,2003.720215 3557.027344,2001.968018 3544.521484,2000.359619 
	C3504.350830,1995.193848 3464.486572,1988.240112 3424.576904,1981.333496 
	C3325.566650,1964.199097 3228.029053,1940.680420 3130.852051,1915.574829 
	C3088.355225,1904.595825 3046.333740,1891.759155 3004.171631,1879.506958 
	C2921.675537,1855.534058 2840.271973,1828.135010 2759.126709,1800.022949 
	C2705.675293,1781.505371 2652.626221,1761.795532 2599.653564,1741.935425 
	C2534.221924,1717.404663 2468.911133,1692.536743 2403.825195,1667.105103 
	C2357.335205,1648.939453 2311.318115,1629.565430 2265.059082,1610.806152 
	C2230.519287,1596.799194 2195.897705,1582.993774 2161.372070,1568.952271 
	C2118.219482,1551.402466 2075.153320,1533.640625 2032.001343,1516.089233 
	C2002.409424,1504.053345 1972.735107,1492.220337 1941.537598,1479.155640 
	C1939.977783,1478.014648 1939.781982,1476.190430 1940.418091,1474.885132 
	C1949.045410,1460.288086 1954.259399,1445.887207 1955.751465,1430.539795 
	C1959.578857,1391.168945 1945.954712,1357.028442 1921.078125,1327.594727 
	C1898.264038,1300.601318 1868.064087,1283.866943 1835.363159,1271.127930 
	C1810.220825,1261.333252 1783.451660,1261.076172 1757.478394,1256.205566 
	C1756.194824,1255.964966 1754.807495,1256.078735 1753.492798,1256.233887 
	C1740.998779,1257.707764 1728.342285,1258.399536 1716.051880,1260.891479 
	C1682.948120,1267.603516 1652.737671,1281.362427 1627.357422,1303.647827 
	C1615.093872,1314.416016 1603.493530,1326.918213 1599.980957,1344.203979 
	C1571.756348,1334.497925 1543.490234,1324.911011 1515.316284,1315.059937 
	C1463.940186,1297.095703 1412.855957,1278.260010 1361.210938,1261.110474 
	C1303.903687,1242.080322 1246.115845,1224.495605 1188.499023,1206.402954 
	C1184.118408,1205.027344 1179.434570,1204.617310 1173.250732,1203.657349 
	C1186.637817,1179.166382 1208.302612,1161.751465 1231.691895,1146.064697 
	C1263.373901,1124.816162 1299.251953,1115.518066 1336.019531,1108.085815 
	C1388.815918,1097.413330 1441.448242,1085.926514 1494.138550,1074.731079 
	C1548.126587,1063.259888 1602.094238,1051.692261 1656.081787,1040.219238 
	C1708.773438,1029.021606 1761.486206,1017.922058 1814.177124,1006.720703 
	C1868.163818,995.244019 1922.129028,983.665771 1976.115601,972.187744 
	C2028.804810,960.985474 2081.518311,949.896729 2134.203857,938.678772 
	C2187.536377,927.323242 2240.835693,915.813477 2294.172119,904.476196 
	C2345.560303,893.553040 2396.987549,882.813293 2448.378174,871.902527 
	C2502.370605,860.439392 2556.203613,848.174377 2610.359863,837.552185 
	C2658.704102,828.070068 2705.481934,834.504517 2750.477539,855.045471 
	C2774.423828,865.977112 2795.008301,881.635193 2815.278076,897.877991 
	C2861.510254,934.925354 2907.609863,972.137817 2953.718018,1009.339600 
	C2984.285889,1034.003052 3014.735840,1058.812744 3045.309570,1083.468994 
	C3084.173584,1114.810913 3123.125732,1146.042969 3162.008057,1177.361816 
	C3191.560791,1201.165649 3221.064453,1225.029541 3250.585938,1248.872070 
	C3253.676025,1251.367554 3256.737061,1253.899048 3260.047607,1256.607178 
	C3257.928467,1262.305298 3256.635498,1266.663086 3254.734619,1270.737671 
	C3247.035889,1287.242676 3242.230957,1304.875000 3241.732666,1322.709229 
	C3241.134521,1344.105835 3246.257812,1364.973022 3258.035645,1383.541138 
	C3272.228760,1405.916626 3290.819336,1423.802612 3313.885742,1436.763916 
	C3345.636963,1454.604980 3379.604004,1465.561401 3416.065430,1468.429688 
	C3425.328613,1469.158447 3434.520264,1470.895874 3443.788086,1471.442139 
	C3464.525391,1472.664429 3484.941895,1469.385742 3505.180908,1465.499878 
	C3513.146484,1463.970703 3519.021240,1465.427368 3525.309326,1470.545044 
	C3557.320068,1496.596436 3589.702881,1522.190186 3621.888428,1548.027710 
	C3667.050781,1584.282837 3712.178223,1620.581543 3757.274170,1656.919067 
	C3787.858398,1681.563721 3818.322021,1706.358154 3848.915527,1730.991455 
	C3879.506592,1755.622803 3910.236328,1780.082397 3940.823242,1804.718872 
	C3971.931885,1829.775391 4002.960938,1854.931274 4033.981445,1880.097168 
	C4043.286865,1887.646362 4052.463623,1895.354858 4061.669922,1903.026123 
	C4099.180664,1934.282349 4123.751953,1973.709229 4136.025879,2022.426270 
M2417.336182,1404.769287 
	C2455.247559,1429.167603 2496.867188,1444.713867 2540.215820,1456.052368 
	C2571.109131,1464.132935 2602.606934,1468.693359 2634.252930,1472.796753 
	C2665.249512,1476.816162 2696.187500,1480.660400 2727.493652,1480.170776 
	C2761.376953,1479.640747 2795.352051,1482.295410 2829.064941,1476.104004 
	C2852.698730,1471.763794 2875.869385,1466.530884 2897.519287,1455.501343 
	C2910.381348,1448.948730 2920.522949,1439.435791 2929.049072,1428.373291 
	C2936.419189,1418.811646 2939.952637,1407.617920 2940.426514,1394.981323 
	C2941.285156,1372.089233 2934.486572,1351.452637 2923.595459,1332.165283 
	C2911.465820,1310.684448 2896.427246,1291.061646 2879.018799,1273.538330 
	C2850.293701,1244.623657 2818.194336,1220.086670 2783.109863,1199.146118 
	C2748.000000,1178.190308 2711.067139,1161.796143 2672.009277,1150.071411 
	C2632.910400,1138.333740 2592.394287,1135.556396 2552.033691,1132.669922 
	C2538.302002,1131.687866 2524.308838,1135.237793 2510.405762,1135.604736 
	C2475.341553,1136.530518 2441.912842,1144.990234 2409.629150,1157.745850 
	C2385.993408,1167.084595 2364.651611,1180.255859 2346.630371,1198.995239 
	C2316.861084,1229.951050 2313.156982,1265.946411 2325.119873,1304.554565 
	C2331.042236,1323.667969 2342.535645,1340.274780 2356.609375,1354.994263 
	C2374.193115,1373.384766 2393.375000,1389.688354 2417.336182,1404.769287 
z"/>
<path fill="#FFE5A0" opacity="1.000000" stroke="none" 
	d="
M3230.294922,3545.435547 
	C3254.925293,3549.405762 3277.949219,3552.344971 3300.778076,3556.387695 
	C3327.545654,3561.127686 3354.172607,3566.683105 3380.807617,3572.144531 
	C3422.523193,3580.697998 3463.575928,3591.757324 3503.742432,3605.932617 
	C3530.774902,3615.473145 3557.295410,3626.272949 3581.168701,3642.470947 
	C3587.719971,3646.916016 3593.270752,3652.806641 3599.604980,3657.606201 
	C3616.652344,3670.522461 3615.854736,3704.712402 3600.155273,3718.547852 
	C3587.587158,3729.623779 3575.178955,3740.365723 3560.186768,3748.026855 
	C3529.253662,3763.833740 3497.225098,3776.603760 3463.417480,3784.901123 
	C3429.888184,3793.130371 3396.629395,3802.523926 3362.950439,3810.059814 
	C3337.101074,3815.844238 3310.807129,3819.675781 3284.666992,3824.115967 
	C3261.814697,3827.998047 3238.943115,3831.810059 3216.000000,3835.094727 
	C3200.913574,3837.254639 3185.679443,3838.369873 3170.522705,3840.056152 
	C3159.330322,3841.300781 3148.151855,3842.675781 3136.975098,3844.057129 
	C3117.918701,3846.412109 3098.875977,3848.876953 3079.810791,3851.156494 
	C3075.194092,3851.708496 3070.515625,3851.830566 3065.860596,3851.954102 
	C3055.899658,3852.217773 3045.824951,3851.224609 3036.231445,3855.085693 
	C3035.030029,3855.569092 3033.616211,3855.612793 3032.291016,3855.689453 
	C3007.105957,3857.147949 2981.926270,3858.726318 2956.729736,3859.951904 
	C2945.455322,3860.500488 2934.312012,3860.409424 2923.041016,3862.912109 
	C2913.472412,3865.036621 2903.150146,3863.718262 2893.164307,3864.022461 
	C2877.251953,3864.506836 2861.219482,3862.564941 2845.519043,3867.354736 
	C2841.218018,3868.667236 2836.251709,3867.895020 2831.589844,3867.912842 
	C2808.924316,3867.999756 2786.258301,3867.936768 2763.593750,3868.114746 
	C2749.657959,3868.224121 2735.685547,3867.107666 2721.928467,3871.244629 
	C2717.002441,3872.725586 2711.339844,3871.883301 2706.013428,3871.885742 
	C2643.349854,3871.914795 2580.686279,3871.988281 2518.023193,3871.795654 
	C2510.116211,3871.771240 2502.218506,3870.238770 2494.307129,3869.505127 
	C2488.360107,3868.953613 2482.400879,3868.213379 2476.442139,3868.161133 
	C2453.777832,3867.963135 2431.111084,3868.096924 2408.446533,3867.932129 
	C2395.838135,3867.840332 2383.391357,3867.474121 2370.752441,3865.150879 
	C2357.825439,3862.774902 2344.194824,3864.251221 2330.873047,3863.994141 
	C2318.927734,3863.763916 2307.117676,3863.868408 2295.175293,3861.129883 
	C2285.633301,3858.941895 2275.290771,3860.238770 2265.303223,3860.000977 
	C2254.022705,3859.732666 2242.592773,3861.050293 2231.687500,3856.796875 
	C2231.080566,3856.560303 2230.377197,3856.479248 2229.718750,3856.479736 
	C2210.422119,3856.495850 2191.324463,3853.869873 2172.145020,3852.461182 
	C2147.649170,3850.662354 2123.370605,3847.576416 2099.005371,3844.871094 
	C2085.170166,3843.334961 2071.310303,3841.873291 2057.475586,3840.475830 
	C2039.627563,3838.673828 2022.048218,3835.619385 2004.365112,3832.966553 
	C1990.600952,3830.901855 1976.678833,3829.893311 1962.911133,3827.849121 
	C1946.518799,3825.414795 1930.196289,3822.488525 1913.878784,3819.576416 
	C1866.810547,3811.176514 1820.185791,3800.825684 1774.010864,3788.358154 
	C1732.048218,3777.027832 1691.693726,3761.753906 1653.692871,3740.614258 
	C1645.618652,3736.122803 1638.260010,3730.259033 1630.883301,3724.619873 
	C1620.199219,3716.452881 1615.716309,3704.484375 1613.021362,3692.004639 
	C1612.121338,3687.836426 1613.498169,3682.807373 1614.966797,3678.563965 
	C1619.965454,3664.120850 1630.238159,3653.479492 1642.415283,3645.103027 
	C1662.777344,3631.096680 1684.849854,3619.974365 1708.061279,3611.562500 
	C1744.337769,3598.415771 1780.987549,3586.328857 1818.855225,3578.447021 
	C1850.664917,3571.826416 1882.156738,3563.789795 1914.435425,3559.277832 
	C1943.948364,3555.152344 1973.080200,3548.006348 2002.661743,3544.754150 
	C2028.357178,3541.928955 2053.747070,3537.087158 2079.642578,3535.212646 
	C2106.018066,3533.303467 2132.459961,3530.468750 2158.721191,3527.216309 
	C2174.645508,3525.243896 2190.723145,3526.059082 2206.278809,3523.371826 
	C2224.187500,3520.278076 2242.269043,3522.035645 2259.848633,3519.405273 
	C2282.424805,3516.027588 2305.216064,3518.447998 2327.411865,3515.334717 
	C2357.348877,3511.135742 2387.182617,3512.808105 2417.057861,3511.897217 
	C2419.056641,3511.836182 2421.158447,3512.180664 2423.039062,3511.682129 
	C2445.992188,3505.598389 2469.419678,3508.201172 2492.634521,3508.133789 
	C2585.962402,3507.863037 2679.291748,3507.990234 2772.619873,3508.194824 
	C2781.183594,3508.213623 2789.738770,3509.875488 2798.306885,3510.682861 
	C2803.595459,3511.181152 2808.897217,3511.791748 2814.198975,3511.855469 
	C2830.196045,3512.047852 2846.196777,3511.954590 2862.195557,3512.057129 
	C2872.160889,3512.121094 2881.954590,3512.456055 2891.902100,3514.750244 
	C2900.811279,3516.804932 2910.450439,3515.691895 2919.767578,3515.979736 
	C2933.690186,3516.409424 2947.728760,3514.728271 2961.414795,3519.217529 
	C2965.073486,3520.417725 2969.343262,3519.820312 2973.335693,3519.924316 
	C2988.596436,3520.321533 3003.895020,3519.036621 3018.978760,3523.386475 
	C3024.548096,3524.992676 3030.924805,3523.596924 3036.894043,3524.066650 
	C3045.467041,3524.741211 3054.005859,3525.856445 3062.554932,3526.821045 
	C3063.873047,3526.969482 3065.158203,3527.448975 3066.476318,3527.553223 
	C3085.654053,3529.067383 3104.849854,3530.376709 3124.010010,3532.082031 
	C3138.537598,3533.375488 3153.045166,3534.970459 3167.519043,3536.774170 
	C3187.900879,3539.314209 3208.243164,3542.171387 3230.294922,3545.435547 
z"/>
<path fill="#FC9C01" opacity="1.000000" stroke="none" 
	d="
M3072.201416,2163.864014 
	C3064.686279,2210.749023 3044.897949,2250.666748 3015.949951,2285.129150 
	C2973.698730,2335.429443 2920.916992,2369.085449 2854.713135,2380.635254 
	C2812.621582,2387.978516 2773.134766,2381.860840 2733.779541,2367.205566 
	C2704.367188,2356.252686 2679.296387,2339.147217 2658.745117,2316.129883 
	C2641.091309,2296.357178 2626.159912,2274.268066 2613.378662,2250.859863 
	C2597.346436,2221.497803 2585.740479,2190.399414 2577.620605,2158.076172 
	C2574.411865,2145.301758 2574.726807,2131.629395 2571.388184,2118.903320 
	C2567.580566,2104.389404 2568.212402,2089.904785 2568.023682,2075.319092 
	C2567.558350,2039.367676 2575.695557,2005.482666 2593.021729,1973.960205 
	C2608.633301,1945.557617 2630.816162,1924.903931 2662.237061,1914.480957 
	C2682.618896,1907.720093 2702.977783,1902.403076 2724.665771,1903.879761 
	C2729.969727,1904.240845 2735.341064,1904.241089 2740.644531,1903.874756 
	C2770.133545,1901.838013 2799.069336,1906.460571 2827.500244,1912.959106 
	C2859.802002,1920.342285 2892.258789,1927.717285 2923.108398,1940.324829 
	C2955.310059,1953.485229 2986.078369,1969.583984 3011.270996,1993.813843 
	C3042.482178,2023.832520 3065.249268,2059.151367 3072.242432,2103.101807 
	C3074.016357,2114.250732 3077.106689,2125.218262 3075.899658,2136.618652 
	C3074.995605,2145.156982 3073.553467,2153.637939 3072.201416,2163.864014 
M2680.557617,2271.778076 
	C2686.094727,2278.309570 2691.302490,2285.159668 2697.240234,2291.303955 
	C2708.280518,2302.728271 2722.592285,2306.046631 2737.469971,2303.416260 
	C2750.752686,2301.068115 2762.898926,2295.207520 2767.106201,2280.334717 
	C2774.737549,2253.356689 2760.229736,2224.521973 2734.341309,2213.283203 
	C2720.412109,2207.236084 2707.478516,2208.205078 2694.322998,2214.877197 
	C2683.320068,2220.457520 2677.263672,2229.368896 2676.149902,2241.458984 
	C2675.293945,2250.744873 2675.509521,2260.039551 2680.557617,2271.778076 
z"/>
<path fill="#FCA001" opacity="1.000000" stroke="none" 
	d="
M1984.062378,2108.261963 
	C1980.724365,2122.424072 1969.181274,2130.440430 1958.780518,2137.824951 
	C1928.444092,2159.363770 1894.679688,2171.202148 1856.756348,2172.362305 
	C1820.377075,2173.475342 1787.055786,2164.858887 1755.593140,2147.703613 
	C1735.036987,2136.495361 1717.476685,2121.792969 1703.132812,2102.877686 
	C1687.192505,2081.857422 1676.339478,2058.970947 1670.230347,2033.330811 
	C1667.377563,2021.357910 1668.492798,2009.567505 1668.022461,1997.691772 
	C1666.795654,1966.714844 1676.542480,1939.029053 1696.392334,1912.625244 
	C1711.297852,1908.810791 1723.746094,1906.638184 1735.811401,1903.143433 
	C1763.712402,1895.061523 1790.088989,1902.822510 1815.436157,1912.200806 
	C1853.144653,1926.152710 1882.327026,1952.863159 1908.185791,1982.771729 
	C1929.923462,2007.913696 1947.906372,2035.951660 1964.131348,2064.925537 
	C1971.875488,2078.754639 1977.485596,2093.779053 1984.062378,2108.261963 
M1821.863647,2115.962891 
	C1831.766724,2100.201172 1829.663086,2087.362793 1815.766479,2078.753174 
	C1809.099365,2074.622559 1797.300781,2074.902344 1791.285156,2079.333252 
	C1784.363525,2084.431641 1782.248779,2093.065918 1785.592529,2102.577637 
	C1790.401855,2116.259277 1801.060181,2121.103027 1821.863647,2115.962891 
z"/>
<path fill="#FFD926" opacity="1.000000" stroke="none" 
	d="
M1599.971191,1345.479736 
	C1603.493530,1326.918213 1615.093872,1314.416016 1627.357422,1303.647827 
	C1652.737671,1281.362427 1682.948120,1267.603516 1716.051880,1260.891479 
	C1728.342285,1258.399536 1740.998779,1257.707764 1753.492798,1256.233887 
	C1754.807495,1256.078735 1756.194824,1255.964966 1757.478394,1256.205566 
	C1783.451660,1261.076172 1810.220825,1261.333252 1835.363159,1271.127930 
	C1868.064087,1283.866943 1898.264038,1300.601318 1921.078125,1327.594727 
	C1945.954712,1357.028442 1959.578857,1391.168945 1955.751465,1430.539795 
	C1954.259399,1445.887207 1949.045410,1460.288086 1938.914307,1474.622803 
	C1917.626831,1470.411865 1898.590088,1464.704468 1879.309692,1459.994019 
	C1832.338989,1448.518311 1785.630005,1436.077026 1739.505737,1421.602905 
	C1708.506836,1411.875488 1678.546265,1399.530518 1650.152100,1383.408691 
	C1635.689209,1375.196899 1621.151855,1367.416626 1609.073120,1355.698975 
	C1606.901123,1353.591919 1603.162964,1353.099121 1600.147949,1351.861084 
	C1600.085815,1350.159180 1600.023682,1348.457397 1599.971191,1345.479736 
z"/>
<path fill="#FB9201" opacity="1.000000" stroke="none" 
	d="
M1985.278198,2107.635742 
	C1977.485596,2093.779053 1971.875488,2078.754639 1964.131348,2064.925537 
	C1947.906372,2035.951660 1929.923462,2007.913696 1908.185791,1982.771729 
	C1882.327026,1952.863159 1853.144653,1926.152710 1815.436157,1912.200806 
	C1790.088989,1902.822510 1763.712402,1895.061523 1735.811401,1903.143433 
	C1723.746094,1906.638184 1711.297852,1908.810791 1697.460205,1911.785278 
	C1697.077148,1908.950562 1697.482300,1905.170044 1699.565308,1903.000977 
	C1711.963623,1890.091797 1723.934937,1876.802002 1739.230225,1866.889160 
	C1774.998901,1843.708130 1814.238770,1832.873291 1856.372314,1836.517700 
	C1884.750977,1838.972046 1912.032715,1847.168823 1937.290771,1861.854126 
	C1950.080811,1869.290405 1962.301758,1877.726318 1972.330688,1887.746216 
	C1988.163086,1903.564087 2001.657715,1921.670288 2011.249512,1942.593628 
	C2024.189087,1970.819336 2026.298706,2000.394531 2023.502075,2030.262573 
	C2021.189209,2054.964600 2012.062866,2077.974854 1996.838623,2098.008057 
	C1994.130737,2101.571289 1989.979004,2104.037109 1985.278198,2107.635742 
z"/>
<path fill="#FFB70D" opacity="1.000000" stroke="none" 
	d="
M1598.841309,1352.626343 
	C1603.162964,1353.099121 1606.901123,1353.591919 1609.073120,1355.698975 
	C1621.151855,1367.416626 1635.689209,1375.196899 1650.152100,1383.408691 
	C1678.546265,1399.530518 1708.506836,1411.875488 1739.505737,1421.602905 
	C1785.630005,1436.077026 1832.338989,1448.518311 1879.309692,1459.994019 
	C1898.590088,1464.704468 1917.626831,1470.411865 1938.278198,1475.928101 
	C1939.781982,1476.190430 1939.977783,1478.014648 1940.093994,1478.923096 
	C1938.580933,1480.958008 1936.449097,1481.736938 1935.395630,1483.261353 
	C1908.635010,1521.980957 1868.841797,1538.554321 1824.952515,1547.470215 
	C1813.431519,1549.810425 1801.148804,1547.257446 1789.530518,1551.369751 
	C1786.817017,1552.330322 1783.118286,1550.500000 1779.871216,1549.962646 
	C1775.965698,1549.316040 1772.075195,1548.261475 1768.149170,1548.103638 
	C1732.266724,1546.659912 1699.760376,1535.423950 1668.940063,1517.046875 
	C1655.669312,1509.133911 1645.272949,1497.925293 1632.197266,1490.127686 
	C1614.936523,1469.072388 1598.302124,1447.922241 1591.745239,1420.352783 
	C1587.006104,1400.426147 1586.694336,1381.083740 1592.439575,1361.609009 
	C1593.318970,1358.628296 1595.796265,1356.118896 1598.841309,1352.626343 
M1697.126221,1464.537476 
	C1695.931763,1463.972900 1694.787964,1463.234131 1693.535034,1462.869995 
	C1677.514404,1458.213135 1667.923828,1466.059204 1667.786743,1482.066040 
	C1667.702515,1491.875732 1681.204712,1505.399292 1692.555664,1507.121094 
	C1701.308228,1508.448853 1710.748901,1500.255249 1711.981323,1491.402466 
	C1713.559692,1480.065186 1708.080811,1472.487061 1697.126221,1464.537476 
z"/>
<path fill="#FCA001" opacity="1.000000" stroke="none" 
	d="
M2443.841797,2683.912109 
	C2436.016113,2701.702148 2425.869873,2717.896729 2411.122803,2730.836914 
	C2387.435303,2751.622070 2360.435547,2764.077393 2328.313477,2764.080322 
	C2315.672852,2764.081543 2303.344727,2763.123779 2290.954834,2760.074219 
	C2267.607422,2754.327881 2248.233154,2741.633789 2231.810547,2725.180664 
	C2215.679688,2709.019775 2205.895996,2688.366455 2200.560791,2666.106445 
	C2198.114258,2655.898682 2196.433838,2645.246094 2196.426270,2634.793701 
	C2196.419922,2625.685791 2198.470703,2616.350586 2201.014160,2607.519531 
	C2204.843994,2594.222412 2208.323730,2580.575928 2220.001465,2569.895020 
	C2231.498047,2570.763672 2240.748291,2572.324951 2249.888184,2571.831787 
	C2284.398926,2569.970459 2315.658691,2582.101074 2344.879395,2597.292725 
	C2377.301270,2614.149170 2405.249512,2637.832764 2427.092285,2668.096924 
	C2431.357178,2674.006348 2434.206543,2683.040771 2443.841797,2683.912109 
M2265.983643,2688.879639 
	C2269.120605,2689.794189 2272.284180,2691.574219 2275.389893,2691.478027 
	C2291.538574,2690.979492 2299.840088,2676.818359 2292.917480,2662.205322 
	C2289.339600,2654.652588 2284.042480,2649.482666 2275.633789,2647.265869 
	C2266.956055,2644.978516 2259.416016,2646.452881 2254.250977,2652.576172 
	C2248.078369,2659.894287 2247.086426,2668.035645 2252.480713,2676.239502 
	C2255.293945,2680.517822 2259.611084,2683.807617 2265.983643,2688.879639 
z"/>
<path fill="#FCA001" opacity="1.000000" stroke="none" 
	d="
M3240.071533,3024.049805 
	C3233.354736,3037.032715 3219.731201,3041.585449 3208.183838,3046.812256 
	C3165.387695,3066.183350 3111.128174,3057.020020 3079.968018,3021.749268 
	C3060.029785,2999.181152 3049.141846,2972.859375 3047.744141,2942.236572 
	C3046.506836,2915.134766 3054.114014,2890.900146 3068.135498,2868.584717 
	C3073.670166,2859.775635 3082.280518,2852.899170 3091.687988,2845.569824 
	C3153.480469,2860.298096 3190.478027,2899.394531 3213.479492,2954.269043 
	C3221.935059,2974.441895 3228.972168,2994.913818 3232.206299,3016.583984 
	C3232.904541,3021.263184 3235.741455,3023.362061 3240.071533,3024.049805 
M3159.005859,3012.355225 
	C3157.877686,2994.887451 3150.737305,2984.791260 3136.838379,2981.010986 
	C3125.815186,2978.012695 3111.183838,2989.705811 3112.585449,3001.019775 
	C3114.103027,3013.265869 3121.313965,3021.482666 3132.804932,3026.103760 
	C3142.708740,3030.086426 3149.410889,3025.391846 3155.379395,3018.315918 
	C3156.235596,3017.300781 3156.967285,3016.180908 3159.005859,3012.355225 
z"/>
<path fill="#FCA001" opacity="1.000000" stroke="none" 
	d="
M3876.098145,2476.264893 
	C3875.968262,2483.789062 3869.962402,2487.727295 3865.870117,2492.761963 
	C3849.138672,2513.346436 3826.723389,2523.707764 3801.076172,2527.472900 
	C3796.133545,2528.198242 3790.752686,2525.999023 3785.582275,2525.101318 
	C3750.663086,2519.037842 3728.956299,2496.980713 3717.251709,2465.272705 
	C3699.708984,2417.749268 3704.470947,2371.658203 3730.631592,2328.038086 
	C3731.285645,2326.947754 3732.525879,2326.208984 3736.215332,2324.677246 
	C3742.725098,2325.107666 3746.736816,2325.678223 3750.264404,2327.301025 
	C3785.935303,2343.708984 3814.062744,2368.893311 3836.593262,2400.887939 
	C3853.102783,2424.332520 3865.905762,2449.580078 3876.098145,2476.264893 
M3780.160400,2453.155518 
	C3781.535400,2456.876709 3782.354248,2460.940430 3784.393066,2464.252930 
	C3789.776123,2472.998535 3798.153809,2476.449219 3808.200195,2475.874023 
	C3815.684082,2475.445801 3820.691406,2471.072754 3823.104492,2464.374023 
	C3827.468750,2452.257568 3818.707275,2436.597656 3805.270020,2433.266113 
	C3800.420166,2432.063721 3794.469482,2432.288330 3789.818848,2434.012695 
	C3783.139404,2436.489258 3779.878174,2442.534668 3780.160400,2453.155518 
z"/>
<path fill="#FB9201" opacity="1.000000" stroke="none" 
	d="
M2444.112793,2682.360840 
	C2434.206543,2683.040771 2431.357178,2674.006348 2427.092285,2668.096924 
	C2405.249512,2637.832764 2377.301270,2614.149170 2344.879395,2597.292725 
	C2315.658691,2582.101074 2284.398926,2569.970459 2249.888184,2571.831787 
	C2240.748291,2572.324951 2231.498047,2570.763672 2221.058594,2569.002197 
	C2220.662354,2565.368164 2220.921875,2562.429199 2222.437988,2560.455322 
	C2240.928223,2536.382568 2265.554199,2521.119873 2294.520752,2513.612793 
	C2305.174805,2510.851807 2316.953613,2512.666016 2328.173096,2511.796143 
	C2343.797363,2510.584961 2358.301270,2514.439697 2372.884521,2519.474854 
	C2385.142578,2523.707031 2395.269043,2530.940674 2404.962158,2538.981445 
	C2428.805176,2558.760986 2443.899170,2583.651367 2449.612061,2614.406738 
	C2452.565674,2630.305908 2453.416748,2645.880859 2449.383057,2661.591064 
	C2447.737061,2668.002441 2446.051514,2674.403809 2444.112793,2682.360840 
z"/>
<path fill="#FB9201" opacity="1.000000" stroke="none" 
	d="
M3241.250977,3023.403320 
	C3235.741455,3023.362061 3232.904541,3021.263184 3232.206299,3016.583984 
	C3228.972168,2994.913818 3221.935059,2974.441895 3213.479492,2954.269043 
	C3190.478027,2899.394531 3153.480469,2860.298096 3092.863770,2844.930908 
	C3106.946777,2826.343018 3126.976807,2818.560547 3149.185303,2816.192383 
	C3160.330811,2815.003906 3171.711670,2815.857910 3182.980469,2816.076904 
	C3186.906250,2816.153076 3190.991943,2816.544678 3194.704834,2817.730469 
	C3238.737793,2831.794678 3265.993164,2860.883789 3276.371094,2906.486816 
	C3280.927490,2926.508301 3280.352783,2945.799805 3275.652588,2965.265869 
	C3270.255615,2987.619629 3260.093018,3007.401611 3241.250977,3023.403320 
z"/>
<path fill="#FB9201" opacity="1.000000" stroke="none" 
	d="
M3877.290527,2475.568848 
	C3865.905762,2449.580078 3853.102783,2424.332520 3836.593262,2400.887939 
	C3814.062744,2368.893311 3785.935303,2343.708984 3750.264404,2327.301025 
	C3746.736816,2325.678223 3742.725098,2325.107666 3737.421875,2324.014648 
	C3736.351074,2322.052734 3736.248291,2319.721680 3737.324463,2318.257324 
	C3755.318604,2293.777832 3778.730469,2277.413086 3809.128662,2272.920654 
	C3815.955322,2271.911865 3823.363037,2274.571533 3830.468262,2275.753174 
	C3864.271240,2281.373779 3882.892578,2304.521973 3895.683350,2333.565918 
	C3902.106201,2348.150391 3905.157227,2363.634521 3904.308105,2379.985596 
	C3903.349121,2398.441406 3905.499023,2417.122803 3899.480957,2435.110352 
	C3894.665771,2449.503418 3891.138184,2464.607178 3877.290527,2475.568848 
z"/>
<path fill="#FFBC00" opacity="1.000000" stroke="none" 
	d="
M2416.069824,1404.071289 
	C2393.375000,1389.688354 2374.193115,1373.384766 2356.609375,1354.994263 
	C2342.535645,1340.274780 2331.042236,1323.667969 2325.119873,1304.554565 
	C2313.156982,1265.946411 2316.861084,1229.951050 2346.630371,1198.995239 
	C2364.651611,1180.255859 2385.993408,1167.084595 2409.629150,1157.745850 
	C2441.912842,1144.990234 2475.341553,1136.530518 2510.405762,1135.604736 
	C2524.308838,1135.237793 2538.302002,1131.687866 2552.033691,1132.669922 
	C2592.394287,1135.556396 2632.910400,1138.333740 2672.009277,1150.071411 
	C2711.067139,1161.796143 2748.000000,1178.190308 2783.109863,1199.146118 
	C2818.194336,1220.086670 2850.293701,1244.623657 2879.018799,1273.538330 
	C2896.427246,1291.061646 2911.465820,1310.684448 2923.595459,1332.165283 
	C2934.486572,1351.452637 2941.285156,1372.089233 2940.426514,1394.981323 
	C2939.952637,1407.617920 2936.419189,1418.811646 2929.049072,1428.373291 
	C2920.522949,1439.435791 2910.381348,1448.948730 2897.519287,1455.501343 
	C2875.869385,1466.530884 2852.698730,1471.763794 2829.064941,1476.104004 
	C2795.352051,1482.295410 2761.376953,1479.640747 2727.493652,1480.170776 
	C2696.187500,1480.660400 2665.249512,1476.816162 2634.252930,1472.796753 
	C2602.606934,1468.693359 2571.109131,1464.132935 2540.215820,1456.052368 
	C2496.867188,1444.713867 2455.247559,1429.167603 2416.069824,1404.071289 
z"/>
<path fill="#FEE600" opacity="1.000000" stroke="none" 
	d="
M2680.108887,2270.264648 
	C2675.509521,2260.039551 2675.293945,2250.744873 2676.149902,2241.458984 
	C2677.263672,2229.368896 2683.320068,2220.457520 2694.322998,2214.877197 
	C2707.478516,2208.205078 2720.412109,2207.236084 2734.341309,2213.283203 
	C2760.229736,2224.521973 2774.737549,2253.356689 2767.106201,2280.334717 
	C2762.898926,2295.207520 2750.752686,2301.068115 2737.469971,2303.416260 
	C2722.592285,2306.046631 2708.280518,2302.728271 2697.240234,2291.303955 
	C2691.302490,2285.159668 2686.094727,2278.309570 2680.108887,2270.264648 
z"/>
<path fill="#FEE300" opacity="1.000000" stroke="none" 
	d="
M1820.568115,2116.923340 
	C1801.060181,2121.103027 1790.401855,2116.259277 1785.592529,2102.577637 
	C1782.248779,2093.065918 1784.363525,2084.431641 1791.285156,2079.333252 
	C1797.300781,2074.902344 1809.099365,2074.622559 1815.766479,2078.753174 
	C1829.663086,2087.362793 1831.766724,2100.201172 1820.568115,2116.923340 
z"/>
<path fill="#FFEB0A" opacity="1.000000" stroke="none" 
	d="
M1698.426758,1465.339478 
	C1708.080811,1472.487061 1713.559692,1480.065186 1711.981323,1491.402466 
	C1710.748901,1500.255249 1701.308228,1508.448853 1692.555664,1507.121094 
	C1681.204712,1505.399292 1667.702515,1491.875732 1667.786743,1482.066040 
	C1667.923828,1466.059204 1677.514404,1458.213135 1693.535034,1462.869995 
	C1694.787964,1463.234131 1695.931763,1463.972900 1698.426758,1465.339478 
z"/>
<path fill="#FEE300" opacity="1.000000" stroke="none" 
	d="
M2264.616211,2688.211914 
	C2259.611084,2683.807617 2255.293945,2680.517822 2252.480713,2676.239502 
	C2247.086426,2668.035645 2248.078369,2659.894287 2254.250977,2652.576172 
	C2259.416016,2646.452881 2266.956055,2644.978516 2275.633789,2647.265869 
	C2284.042480,2649.482666 2289.339600,2654.652588 2292.917480,2662.205322 
	C2299.840088,2676.818359 2291.538574,2690.979492 2275.389893,2691.478027 
	C2272.284180,2691.574219 2269.120605,2689.794189 2264.616211,2688.211914 
z"/>
<path fill="#FEE300" opacity="1.000000" stroke="none" 
	d="
M3158.381348,3013.732422 
	C3156.967285,3016.180908 3156.235596,3017.300781 3155.379395,3018.315918 
	C3149.410889,3025.391846 3142.708740,3030.086426 3132.804932,3026.103760 
	C3121.313965,3021.482666 3114.103027,3013.265869 3112.585449,3001.019775 
	C3111.183838,2989.705811 3125.815186,2978.012695 3136.838379,2981.010986 
	C3150.737305,2984.791260 3157.877686,2994.887451 3158.381348,3013.732422 
z"/>
<path fill="#FEE300" opacity="1.000000" stroke="none" 
	d="
M3780.102539,2451.560547 
	C3779.878174,2442.534668 3783.139404,2436.489258 3789.818848,2434.012695 
	C3794.469482,2432.288330 3800.420166,2432.063721 3805.270020,2433.266113 
	C3818.707275,2436.597656 3827.468750,2452.257568 3823.104492,2464.374023 
	C3820.691406,2471.072754 3815.684082,2475.445801 3808.200195,2475.874023 
	C3798.153809,2476.449219 3789.776123,2472.998535 3784.393066,2464.252930 
	C3782.354248,2460.940430 3781.535400,2456.876709 3780.102539,2451.560547 
z"/>
</svg>